HIERARCHY
ROOT Hips
{
	OFFSET 0.00000 0.00000 0.00000
	CHANNELS 6 Xposition Yposition Zposition Zrotation Yrotation Xrotation 
	JOINT LHipJoint
	{
		OFFSET 0 0 0
		CHANNELS 3 Zrotation Yrotation Xrotation
		JOINT LeftUpLeg
		{
			OFFSET 1.56857 -1.73443 1.15205
			CHANNELS 3 Zrotation Yrotation Xrotation
			JOINT LeftLeg
			{
				OFFSET 2.39362 -6.57643 0.00000
				CHANNELS 3 Zrotation Yrotation Xrotation
				JOINT LeftFoot
				{
					OFFSET 2.50952 -6.89485 0.00000
					CHANNELS 3 Zrotation Yrotation Xrotation
					JOINT LeftToeBase
					{
						OFFSET 0.17171 -0.47178 1.88682
						CHANNELS 3 Zrotation Yrotation Xrotation
						End Site
						{
							OFFSET 0.00000 -0.00000 0.98146
						}
					}
				}
			}
		}
	}
	JOINT RHipJoint
	{
		OFFSET 0 0 0
		CHANNELS 3 Zrotation Yrotation Xrotation
		JOINT RightUpLeg
		{
			OFFSET -1.28153 -1.73443 1.15205
			CHANNELS 3 Zrotation Yrotation Xrotation
			JOINT RightLeg
			{
				OFFSET -2.26861 -6.23296 0.00000
				CHANNELS 3 Zrotation Yrotation Xrotation
				JOINT RightFoot
				{
					OFFSET -2.54143 -6.98254 0.00000
					CHANNELS 3 Zrotation Yrotation Xrotation
					JOINT RightToeBase
					{
						OFFSET -0.23309 -0.64041 1.93119
						CHANNELS 3 Zrotation Yrotation Xrotation
						End Site
						{
							OFFSET -0.00000 -0.00000 1.02013
						}
					}
				}
			}
		}
	}
	JOINT LowerBack
	{
		OFFSET 0 0 0
		CHANNELS 3 Zrotation Yrotation Xrotation
		JOINT Spine
		{
			OFFSET -0.07096 2.10460 -0.27878
			CHANNELS 3 Zrotation Yrotation Xrotation
			JOINT Spine1
			{
				OFFSET -0.00826 2.13662 -0.08279
				CHANNELS 3 Zrotation Yrotation Xrotation
				JOINT Neck
				{
					OFFSET 0 0 0
					CHANNELS 3 Zrotation Yrotation Xrotation
					JOINT Neck1
					{
						OFFSET 0.03239 1.77799 0.24435
						CHANNELS 3 Zrotation Yrotation Xrotation
						JOINT Head
						{
							OFFSET 0.01026 1.74194 -0.49664
							CHANNELS 3 Zrotation Yrotation Xrotation
							End Site
							{
								OFFSET 0.00170 1.83057 -0.19653
							}
						}
					}
				}
				JOINT LeftShoulder
				{
					OFFSET 0 0 0
					CHANNELS 3 Zrotation Yrotation Xrotation
					JOINT LeftArm
					{
						OFFSET 3.19178 1.35907 -0.31412
						CHANNELS 3 Zrotation Yrotation Xrotation
						JOINT LeftForeArm
						{
							OFFSET 4.85247 -0.00000 -0.00000
							CHANNELS 3 Zrotation Yrotation Xrotation
							JOINT LeftHand
							{
								OFFSET 3.55584 -0.00000 0.00000
								CHANNELS 3 Zrotation Yrotation Xrotation
								JOINT LeftFingerBase
								{
									OFFSET 0 0 0
									CHANNELS 3 Zrotation Yrotation Xrotation
									JOINT LeftHandIndex1
									{
										OFFSET 0.69320 -0.00000 0.00000
										CHANNELS 3 Zrotation Yrotation Xrotation
										End Site
										{
											OFFSET 0.55888 -0.00000 0.00000
										}
									}
								}
								JOINT LThumb
								{
									OFFSET 0 0 0
									CHANNELS 3 Zrotation Yrotation Xrotation
									End Site
									{
										OFFSET 0.56741 -0.00000 0.56741
									}
								}
							}
						}
					}
				}
				JOINT RightShoulder
				{
					OFFSET 0 0 0
					CHANNELS 3 Zrotation Yrotation Xrotation
					JOINT RightArm
					{
						OFFSET -3.28999 1.24191 -0.26899
						CHANNELS 3 Zrotation Yrotation Xrotation
						JOINT RightForeArm
						{
							OFFSET -4.64462 -0.00000 0.00000
							CHANNELS 3 Zrotation Yrotation Xrotation
							JOINT RightHand
							{
								OFFSET -3.40703 -0.00000 0.00000
								CHANNELS 3 Zrotation Yrotation Xrotation
								JOINT RightFingerBase
								{
									OFFSET 0 0 0
									CHANNELS 3 Zrotation Yrotation Xrotation
									JOINT RightHandIndex1
									{
										OFFSET -0.61958 -0.00000 0.00000
										CHANNELS 3 Zrotation Yrotation Xrotation
										End Site
										{
											OFFSET -0.49952 -0.00000 0.00000
										}
									}
								}
								JOINT RThumb
								{
									OFFSET 0 0 0
									CHANNELS 3 Zrotation Yrotation Xrotation
									End Site
									{
										OFFSET -0.50715 -0.00000 0.50715
									}
								}
							}
						}
					}
				}
			}
		}
	}
}
MOTION
Frames: 16
Frame Time: .0083333
-28.7674 17.1236 1.0238 0 0 0 0 0 0 -21 0 0 0 0 0 0 0 0 0 0 0 0 0 0 21 0 0 0 0 0 0 0 0 0 0 0 0 0 0 0 0 0 0 0 0 0 0 -16 0 0 21 0 0 11 0 0 0 -8 0 0 0 0 0 0 0 0 0 0 0 0 0 0 0 0 0 0 0 0 8 0 0 0 0 0 0 0 0 0 0 0 0 0 0 0 0 0
-28.7674 17.1236 1.0238 14.4842 87.1217 15.9595 0.0000 0.0000 0.0000 -15.6852 3.0170 9.2253 0.0124 -0.7176 -1.9721 0.2723 2.7951 -11.2923 0.0000 0.0000 0.0000 0.0000 0.0000 0.0000 14.1015 -6.9443 6.2194 -0.0073 -0.5525 1.5181 -0.8126 -0.4284 -17.1960 -0.0125 -0.7210 1.9814 -3.5220 1.7060 3.8930 -0.5339 2.1613 1.4789 1.3259 1.0847 -0.7705 4.6424 2.0447 -22.2465 0.2396 1.3829 25.3106 -0.4367 1.1956 12.0750 -0.0000 -0.0000 0.0000 -85.3824 4.8946 38.5470 20.7869 -31.5787 -5.9379 -0.0000 -0.0000 6.2652 -0.0000 -0.0000 0.0000 -0.0000 -0.0000 0.0000 -0.0000 0.0000 0.0000 -0.0000 -0.0000 0.0000 0.0000 -0.0000 -0.0000 0.0000 -0.0000 -0.0000 0.0000 0.0000 0.0000 0.0000 0.0000 0.0000 0.0000 0.0000 0.0000 0.0000 -0.0000 0.0000
-28.7668 17.1276 1.0238 14.9415 87.0801 16.3262 0.0000 0.0000 0.0000 -16.0602 2.0472 9.9423 0.0175 -0.8553 -2.3508 0.2691 3.7603 -11.9211 0.0000 0.0000 0.0000 0.0000 0.0000 0.0000 14.0407 -6.9888 6.3300 -0.0070 -0.5419 1.4891 -0.8231 -0.3741 -17.2855 -0.0071 -0.5431 1.4924 -3.4893 1.7566 4.0111 -0.5616 2.2251 1.4827 1.2723 1.1179 -0.8333 4.6599 2.0036 -22.1625 0.0460 1.3808 25.2820 -0.5138 1.1695 12.0479 -0.0000 0.0000 0.0000 -85.3876 4.8239 38.5707 20.7008 -31.4775 -5.8929 -0.0000 -0.0000 6.3979 -0.0000 -0.0000 0.0000 -0.0000 -0.0000 0.0000 -0.0000 0.0000 0.0000 -0.0000 0.0000 0.0000 0.0000 -0.0000 -0.0000 0.0000 -0.0000 -0.0000 0.0000 0.0000 0.0000 0.0000 0.0000 0.0000 0.0000 0.0000 0.0000 0.0000 -0.0000 0.0000
-28.7673 17.1272 1.0244 14.7747 87.0752 16.1601 0.0000 0.0000 0.0000 -16.1588 1.7054 10.1652 0.0200 -0.9137 -2.5114 0.2589 4.1294 -12.0371 0.0000 0.0000 0.0000 0.0000 0.0000 0.0000 14.0489 -7.0040 6.3180 -0.0072 -0.5481 1.5062 -0.8229 -0.4058 -17.2948 -0.0059 -0.4972 1.3662 -3.4757 1.7699 4.0375 -0.5611 2.2413 1.4588 1.2631 1.1267 -0.8730 4.7405 1.9943 -22.1615 -0.0602 1.3707 25.3140 -0.5688 1.1594 12.0613 0.0000 -0.0000 0.0000 -85.3405 4.9128 38.6866 20.7635 -31.5513 -5.9257 -0.0000 -0.0000 6.3349 -0.0000 -0.0000 0.0000 -0.0000 -0.0000 0.0000 -0.0000 0.0000 0.0000 0.0000 -0.0000 0.0000 0.0000 -0.0000 -0.0000 0.0000 -0.0000 -0.0000 0.0000 0.0000 0.0000 0.0000 0.0000 0.0000 0.0000 0.0000 0.0000 0.0000 -0.0000 0.0000
-28.7673 17.1257 1.0253 14.6428 87.1166 16.0504 0.0000 0.0000 0.0000 -16.0756 1.8439 10.0286 0.0185 -0.8776 -2.4121 0.2580 3.9239 -11.8602 0.0000 0.0000 0.0000 0.0000 0.0000 0.0000 14.0975 -6.9691 6.3231 -0.0071 -0.5422 1.4900 -0.8226 -0.4732 -17.3179 -0.0051 -0.4628 1.2718 -3.5130 1.7478 4.0641 -0.5229 2.2076 1.4125 1.3230 1.1108 -0.9366 4.6997 2.0126 -21.9924 -0.0354 1.4162 25.2455 -0.5464 1.1786 12.0019 -0.0000 0.0000 0.0000 -85.3996 5.0210 38.6492 20.7953 -31.5886 -5.9423 -0.0000 -0.0000 6.3403 -0.0000 -0.0000 0.0000 -0.0000 -0.0000 0.0000 -0.0000 0.0000 0.0000 -0.0000 0.0000 0.0000 0.0000 -0.0000 -0.0000 0.0000 -0.0000 -0.0000 0.0000 0.0000 0.0000 0.0000 0.0000 0.0000 0.0000 0.0000 0.0000 0.0000 -0.0000 0.0000
-28.7672 17.1250 1.0267 15.3245 87.0962 16.7345 0.0000 0.0000 0.0000 -15.8681 2.5980 9.5719 0.0144 -0.7736 -2.1261 0.2683 3.1951 -11.4956 1.1347 -6.7651 -19.0213 0.0000 0.0000 0.0000 14.0113 -7.0588 6.2266 -0.0081 -0.5829 1.6017 -0.8256 -0.2806 -17.2770 -0.0082 -0.5842 1.6053 -3.5365 1.7464 3.9999 -0.5545 2.2095 1.4623 1.3067 1.1103 -0.8494 4.6266 2.0012 -22.0583 0.1419 1.3676 25.1992 -0.4754 1.1722 11.9940 0.0000 -0.0000 0.0000 -85.4488 4.8900 38.3427 20.7142 -31.4933 -5.8999 -0.0000 -0.0000 6.4752 -0.0000 -0.0000 0.0000 -0.0000 -0.0000 0.0000 -0.0000 0.0000 0.0000 0.0000 -0.0000 0.0000 0.0000 -0.0000 -0.0000 0.0000 -0.0000 -0.0000 0.0000 0.0000 0.0000 0.0000 0.0000 0.0000 0.0000 0.0000 0.0000 0.0000 -0.0000 0.0000
-28.7673 17.1236 1.0290 15.5843 87.0307 16.9897 0.0000 0.0000 0.0000 -15.7823 2.9629 9.4161 0.0136 -0.7524 -2.0677 0.2696 2.9316 -11.3368 1.1652 -6.8525 -19.2790 0.0000 0.0000 0.0000 13.8724 -7.2887 6.0006 -0.0110 -0.6763 1.8586 -0.8296 0.1010 -17.1836 -0.0097 -0.6365 1.7492 -3.5259 1.7645 3.9151 -0.6072 2.2408 1.5440 1.2496 1.1238 -0.7170 4.7994 2.0615 -22.1571 -0.0255 1.4349 25.2901 -0.5548 1.1979 12.0537 0.0000 -0.0000 0.0000 -85.5152 -1.0961 40.9925 14.0091 -22.7477 -2.8316 -0.0000 -0.0000 3.1497 17.6628 -22.4482 -6.9326 -7.1250 0.0000 -0.0000 -7.0484 6.6863 6.2283 0.0000 -0.0000 0.0000 86.9012 -5.5855 35.0355 -18.4666 28.7505 -4.7715 0.0000 0.0000 0.2387 -14.4860 -28.9082 7.1189 7.1250 -0.0000 -0.0000 18.4396 -58.7159 -6.3195
-28.7678 17.1210 1.0311 15.3340 87.0579 16.7732 0.0000 0.0000 0.0000 -15.7710 2.8346 9.4694 0.0146 -0.7804 -2.1446 0.2673 3.0133 -11.3528 1.0996 -6.6633 -18.7216 0.0000 0.0000 0.0000 13.8653 -7.3956 5.8680 -0.0123 -0.7157 1.9670 -0.8301 0.2068 -17.1533 -0.0094 -0.6262 1.7209 -3.6607 1.7194 4.3375 -0.5042 2.1434 1.1868 1.4151 1.0863 -1.3243 4.9890 2.1741 -21.9665 -0.1674 1.5982 25.6702 -0.6117 1.2829 12.1731 0.0000 -0.0000 0.0000 -85.6283 -0.3960 41.9100 15.0766 -24.2528 -3.2574 -0.0000 -0.0000 0.7566 14.9328 -16.9065 -4.4348 -7.1250 0.0000 -0.0000 -8.5699 12.6622 6.5584 0.0000 -0.0000 0.0000 86.7109 -6.1330 35.2946 -18.3927 28.6571 -4.7361 0.0000 0.0000 0.5894 -14.9318 -28.5578 7.2650 7.1250 -0.0000 -0.0000 17.7361 -58.4819 -5.9681
-28.7679 17.1210 1.0314 17.3776 87.0976 18.8491 0.0000 0.0000 0.0000 -15.7903 3.0748 9.2445 0.0129 -0.7343 -2.0180 0.2709 2.7071 -11.2102 1.0990 -6.6614 -18.7161 0.0000 0.0000 0.0000 13.7554 -7.4391 5.8409 -0.0119 -0.7043 1.9356 -0.8273 0.1681 -17.1370 -0.0107 -0.6679 1.8354 -3.8035 1.7038 4.2438 -0.4908 2.1228 1.2317 1.5136 1.0744 -1.2302 5.0511 2.2164 -22.0363 -0.1983 1.6408 25.7131 -0.6259 1.3043 12.2062 -0.0000 0.0000 0.0000 -85.7408 -0.5903 41.1899 14.9885 -24.1301 -3.2213 -0.0000 -0.0000 0.4942 13.5678 -18.0989 -4.2875 -7.1250 0.0000 -0.0000 -9.4905 11.5897 7.4965 -0.0000 0.0000 0.0000 86.6386 -6.0316 35.3478 -18.3481 28.6006 -4.7147 0.0000 0.0000 0.5368 -15.0407 -28.4443 7.2935 7.1250 -0.0000 -0.0000 17.5469 -58.3978 -5.8661
-28.7684 17.1231 1.0305 18.6268 87.0771 20.1032 0.0000 0.0000 0.0000 -15.8601 3.1746 9.1515 0.0120 -0.7079 -1.9455 0.2712 2.6133 -11.1549 1.0634 -6.5561 -18.4067 0.0000 0.0000 0.0000 13.6554 -7.4869 5.8103 -0.0120 -0.7069 1.9427 -0.8272 0.2305 -17.1157 -0.0118 -0.7008 1.9259 -3.8652 1.7097 4.3145 -0.5025 2.1228 1.1799 1.5327 1.0766 -1.3247 5.0508 2.2063 -21.9578 -0.2195 1.6398 25.7143 -0.6346 1.3018 12.1912 0.0000 0.0000 0.0000 -85.8013 -0.5605 40.8505 14.9406 -24.0633 -3.2017 -0.0000 -0.0000 0.5257 12.6002 -18.5045 -4.0580 -7.1250 0.0000 -0.0000 -10.1279 11.2759 8.0826 0.0000 0.0000 0.0000 86.6168 -6.1590 35.3905 -18.4090 28.6778 -4.7439 0.0000 0.0000 0.5104 -15.0083 -28.5491 7.3016 7.1250 -0.0000 -0.0000 17.6502 -58.4905 -5.9417
-28.7692 17.1246 1.0300 17.2044 87.0323 18.6803 0.0000 0.0000 0.0000 -15.8225 3.1201 9.2091 0.0126 -0.7235 -1.9882 0.2685 2.7221 -11.1784 0.8880 -6.0067 -16.8039 0.0000 0.0000 0.0000 13.7204 -7.4642 5.7766 -0.0125 -0.7210 1.9815 -0.8277 0.2730 -17.1066 -0.0098 -0.6376 1.7522 -3.8190 1.7257 4.2745 -0.4759 2.1491 1.2121 1.5347 1.0884 -1.2700 5.0493 2.2018 -21.9185 -0.2401 1.6410 25.6500 -0.6426 1.2977 12.1582 -0.0000 0.0000 0.0000 -85.8305 -0.6120 40.8084 14.9245 -24.0409 -3.1951 -0.0000 -0.0000 0.4899 12.1626 -18.4869 -3.9095 -7.1250 0.0000 -0.0000 -10.4125 11.3349 8.3047 -0.0000 0.0000 0.0000 86.5799 -6.1551 35.4260 -18.4665 28.7504 -4.7715 0.0000 0.0000 0.5177 -14.9435 -28.6051 7.2818 7.1250 -0.0000 -0.0000 17.7554 -58.5296 -5.9953
-28.7689 17.1255 1.0299 16.9989 86.9925 18.4405 0.0000 0.0000 0.0000 -15.7866 3.2964 9.1789 0.0124 -0.7181 -1.9736 0.2658 2.6493 -11.0832 1.1294 -6.7498 -18.9762 0.0000 0.0000 0.0000 13.6990 -7.5054 5.7772 -0.0128 -0.7294 2.0045 -0.8211 0.3328 -17.0176 -0.0114 -0.6902 1.8967 -3.8605 1.7292 4.2758 -0.4481 2.1535 1.2452 1.5867 1.0898 -1.2395 5.0538 2.2030 -21.9249 -0.2675 1.6473 25.6187 -0.6527 1.2961 12.1476 -0.0000 0.0000 0.0000 -85.7614 -0.2883 41.1802 13.1937 -21.5703 -2.5240 -0.0000 -0.0000 7.5978 23.8284 -24.8486 -10.5138 -7.1250 0.0000 -0.0000 -3.4580 3.1715 3.2675 -0.0000 0.0000 0.0000 86.5272 -6.1198 35.4893 -18.4681 28.7524 -4.7723 0.0000 0.0000 0.4916 -15.0142 -28.7609 7.3536 7.1250 -0.0000 -0.0000 17.7857 -58.6939 -6.0766
-28.7688 17.1251 1.0297 16.5884 87.0240 17.9932 0.0000 0.0000 0.0000 -15.7453 3.3343 9.1920 0.0121 -0.7102 -1.9517 0.2639 2.6340 -11.0402 1.5418 -7.8381 -22.2235 0.0000 0.0000 0.0000 13.7190 -7.5881 5.7973 -0.0129 -0.7328 2.0140 -0.8164 0.3750 -16.9544 -0.0162 -0.8216 2.2580 -3.8243 1.7212 4.3098 -0.4300 2.1438 1.2661 1.5850 1.0847 -1.2359 5.0230 2.1997 -21.9428 -0.2672 1.6512 25.6012 -0.6468 1.2941 12.1438 0.0000 -0.0000 0.0000 -85.7614 -0.2883 41.1802 13.1937 -21.5703 -2.5240 -0.0000 -0.0000 7.5978 23.8284 -24.8486 -10.5138 -7.1250 0.0000 -0.0000 -3.4580 3.1715 3.2675 0.0000 -0.0000 0.0000 86.5329 -6.0668 35.4332 -18.4075 28.6758 -4.7432 0.0000 0.0000 0.5461 -15.1417 -28.8729 7.4443 7.1250 -0.0000 -0.0000 17.7276 -58.8291 -6.1139
-28.7697 17.1232 1.0292 14.5499 87.1004 15.9593 0.0000 0.0000 0.0000 -15.7258 2.8892 9.4166 0.0133 -0.7459 -2.0499 0.2688 2.9546 -11.3383 1.5443 -7.8443 -22.2422 0.0000 0.0000 0.0000 13.8852 -7.5720 5.8209 -0.0126 -0.7235 1.9882 -0.8215 0.3112 -17.0293 -0.0142 -0.7690 2.1134 -3.6758 1.7064 4.3079 -0.3991 2.1309 1.2771 1.5348 1.0775 -1.2187 4.9501 2.2076 -21.9191 -0.2067 1.6713 25.5528 -0.6088 1.3028 12.1193 -0.0000 0.0000 0.0000 -85.7614 -0.2883 41.1802 13.1937 -21.5703 -2.5240 -0.0000 -0.0000 7.5978 23.8284 -24.8486 -10.5138 -7.1250 0.0000 -0.0000 -3.4580 3.1715 3.2675 -0.0000 0.0000 0.0000 86.5229 -6.0358 35.4067 -18.3884 28.6516 -4.7340 0.0000 0.0000 0.5770 -15.1263 -28.8936 7.4413 7.1250 -0.0000 -0.0000 17.7578 -58.8454 -6.1317
-28.7706 17.1224 1.0293 12.9170 87.1206 14.3162 0.0000 0.0000 0.0000 -15.7345 2.5274 9.6393 0.0148 -0.7854 -2.1584 0.2747 3.2344 -11.6329 1.1507 -6.8112 -19.1571 0.0000 0.0000 0.0000 14.0024 -7.5456 5.8473 -0.0123 -0.7171 1.9706 -0.8248 0.2571 -17.0818 -0.0056 -0.4813 1.3224 -3.5895 1.7037 4.3174 -0.3794 2.1315 1.2991 1.5068 1.0772 -1.1992 4.9260 2.2162 -21.8918 -0.1588 1.6780 25.4849 -0.5861 1.3083 12.0869 -0.0000 0.0000 0.0000 -85.7614 -0.2883 41.1802 13.1937 -21.5703 -2.5240 -0.0000 -0.0000 7.5978 23.8284 -24.8486 -10.5138 -7.1250 0.0000 -0.0000 -3.4580 3.1715 3.2675 -0.0000 0.0000 0.0000 86.5096 -6.0236 35.4493 -18.4101 28.6791 -4.7444 0.0000 0.0000 0.5450 -15.0544 -28.9070 7.4078 7.1250 -0.0000 -0.0000 17.8426 -58.8420 -6.1607
-28.7704 17.1244 1.0297 14.3122 87.0534 15.6897 0.0000 0.0000 0.0000 -15.8396 2.5566 9.6815 0.0156 -0.8066 -2.2167 0.2693 3.2617 -11.5600 0.6285 -5.0726 -14.1159 0.0000 0.0000 0.0000 13.9031 -7.5028 5.8754 -0.0124 -0.7203 1.9794 -0.8255 0.2466 -17.0920 -0.0022 -0.3023 0.8305 -3.6744 1.7373 4.3453 -0.4089 2.1717 1.3077 1.5211 1.0977 -1.2100 4.9470 2.1899 -21.8703 -0.1795 1.6396 25.4439 -0.6042 1.2896 12.0660 -0.0000 0.0000 0.0000 -85.7614 -0.2883 41.1802 13.1937 -21.5703 -2.5240 -0.0000 -0.0000 7.5978 23.8284 -24.8486 -10.5138 -7.1250 0.0000 -0.0000 -3.4580 3.1715 3.2675 -0.0000 0.0000 0.0000 86.5500 -6.0443 35.3661 -18.4108 28.6800 -4.7447 0.0000 0.0000 0.5901 -15.0010 -28.6938 7.3313 7.1250 -0.0000 -0.0000 17.7544 -58.6269 -6.0367
